<svg width="113" height="25" viewBox="0 0 113 25" fill="none" xmlns="http://www.w3.org/2000/svg">
<path d="M0.952 2.304C3.34133 1.49333 5.816 1.088 8.376 1.088C10.936 1.088 13.0587 1.632 14.744 2.72C16.4293 3.808 17.272 5.472 17.272 7.712C17.272 9.952 16.4827 11.84 14.904 13.376C13.3253 14.8907 11.4267 15.648 9.208 15.648C7.58667 15.648 6.776 15.0293 6.776 13.792C6.776 13.408 6.85067 13.0027 7 12.576C7.576 12.7253 8.09867 12.8 8.568 12.8C10.04 12.8 11.1493 12.3947 11.896 11.584C12.664 10.7733 13.048 9.65333 13.048 8.224C13.048 6.77333 12.6427 5.696 11.832 4.992C11.0213 4.288 9.89067 3.936 8.44 3.936C7.69333 3.936 6.78667 4.064 5.72 4.32C5.54933 6.944 5.464 9.26933 5.464 11.296C5.464 16.9707 5.688 21.0773 6.136 23.616C5.45333 23.872 4.728 24 3.96 24C3.192 24 2.52 23.7547 1.944 23.264C1.38933 22.7733 1.112 22.1227 1.112 21.312C1.112 20.5013 1.21867 19.0933 1.432 17.088C1.64533 15.0613 1.752 13.44 1.752 12.224C1.752 8.512 1.48533 5.20533 0.952 2.304ZM19.6983 8.096C20.3809 7.904 21.0636 7.808 21.7463 7.808C22.4503 7.808 23.0476 8.02133 23.5383 8.448C24.0289 8.87467 24.2743 9.42933 24.2743 10.112C24.2743 10.7733 24.1569 11.936 23.9223 13.6C23.7089 15.2427 23.6023 16.5227 23.6023 17.44C23.6023 19.8293 23.8263 21.888 24.2743 23.616C23.6129 23.872 22.8983 24 22.1302 24C21.3623 24 20.7543 23.8293 20.3063 23.488C19.8583 23.1253 19.6343 22.6133 19.6343 21.952C19.6343 21.2693 19.7623 20.16 20.0182 18.624C20.2743 17.088 20.4023 15.8187 20.4023 14.816C20.4023 12.1493 20.1676 9.90933 19.6983 8.096ZM20.1143 0.863998C20.8609 0.522666 21.5969 0.351999 22.3223 0.351999C23.0476 0.351999 23.5809 0.543999 23.9223 0.927999C24.2849 1.29067 24.4663 1.83467 24.4663 2.56C24.4663 3.28533 24.2209 3.92533 23.7303 4.48C23.2609 5.03467 22.6423 5.312 21.8743 5.312C20.2956 5.312 19.5063 4.49067 19.5063 2.848C19.5063 2.12267 19.7089 1.46133 20.1143 0.863998ZM42.6385 11.072L42.3185 18.112C42.3185 20.0533 42.6172 21.952 43.2145 23.808C42.6172 24.064 41.9345 24.192 41.1665 24.192C39.3532 24.192 38.4465 23.1787 38.4465 21.152C38.4465 20.2347 38.5638 18.6987 38.7985 16.544C39.0332 14.368 39.1505 13.0027 39.1505 12.448C39.1505 11.3813 38.6705 10.848 37.7105 10.848C37.0065 10.848 36.2065 11.36 35.3105 12.384C34.4358 13.3867 33.6785 14.5173 33.0385 15.776C32.4198 17.0133 32.0572 18.0373 31.9505 18.848C32.0358 20.512 32.2492 22.1013 32.5905 23.616C31.9078 23.872 31.1932 24 30.4465 24C29.7212 24 29.1238 23.8293 28.6545 23.488C28.2065 23.1253 27.9825 22.6347 27.9825 22.016C27.9825 21.376 28.0785 20.2453 28.2705 18.624C28.4625 16.9813 28.5585 15.36 28.5585 13.76C28.5585 12.1387 28.3132 10.2827 27.8225 8.192C28.5052 7.936 29.2305 7.808 29.9985 7.808C30.7665 7.808 31.3852 8.032 31.8545 8.48C32.3452 8.928 32.5905 9.48267 32.5905 10.144C32.5905 10.8053 32.5052 11.8613 32.3345 13.312C33.1452 11.7973 34.2012 10.4747 35.5025 9.344C36.8038 8.192 38.1052 7.616 39.4065 7.616C41.5612 7.616 42.6385 8.768 42.6385 11.072ZM61.1645 19.584C61.4205 20.16 61.5485 20.8107 61.5485 21.536C61.5485 22.2613 61.2925 22.8907 60.7805 23.424C60.2898 23.936 59.6818 24.192 58.9565 24.192C56.6952 24.192 53.1538 24.064 48.3325 23.808C47.9485 23.7867 47.6072 23.6693 47.3085 23.456C47.0098 23.2213 46.8605 22.9333 46.8605 22.592C46.8605 21.4613 46.9458 19.552 47.1165 16.864C47.3085 14.176 47.4045 11.6693 47.4045 9.344C47.4045 6.99733 47.1805 4.30933 46.7325 1.28C48.3112 1.408 50.4338 1.472 53.1005 1.472C55.7672 1.472 58.3165 1.28 60.7485 0.895998C61.0045 1.36533 61.1325 1.93067 61.1325 2.592C61.1325 3.232 60.8765 3.808 60.3645 4.32C59.8738 4.81067 59.2552 5.056 58.5085 5.056C57.7832 5.056 56.6098 4.94933 54.9885 4.736C53.3885 4.52267 52.2045 4.416 51.4365 4.416C51.2658 6.57067 51.1698 8.59733 51.1485 10.496C52.4925 10.624 53.9325 10.688 55.4685 10.688C57.0258 10.688 58.3592 10.464 59.4685 10.016C59.7245 10.4853 59.8525 11.0507 59.8525 11.712C59.8525 12.352 59.5965 12.9387 59.0845 13.472C58.5938 13.984 57.9965 14.24 57.2925 14.24C56.6098 14.24 55.5858 14.112 54.2205 13.856C52.8552 13.5787 51.8205 13.44 51.1165 13.44C51.1165 16.8107 51.1912 19.2853 51.3405 20.864C52.3645 20.9493 53.1645 20.992 53.7405 20.992C56.5565 20.992 59.0312 20.5227 61.1645 19.584ZM70.532 24.384C68.2493 24.384 66.5 23.776 65.284 22.56C64.068 21.344 63.46 19.5947 63.46 17.312C63.46 14.5387 64.2387 12.2027 65.796 10.304C67.3533 8.384 69.4227 7.424 72.004 7.424C73.476 7.424 74.6707 7.72267 75.588 8.32C76.5053 8.896 76.964 9.76 76.964 10.912C76.964 11.6587 76.6653 12.3307 76.068 12.928C75.4707 13.504 74.7987 13.792 74.052 13.792C73.8813 13.792 73.668 13.7707 73.412 13.728C73.476 13.4507 73.508 13.2053 73.508 12.992C73.508 12.224 73.3053 11.5733 72.9 11.04C72.4947 10.5067 71.8227 10.24 70.884 10.24C69.9453 10.24 69.0707 10.624 68.26 11.392C67.684 12.8853 67.396 14.752 67.396 16.992C67.396 20.0427 68.548 21.568 70.852 21.568C72.0893 21.568 73.0067 21.1733 73.604 20.384C74.2227 19.5733 74.532 18.6667 74.532 17.664C75.2573 17.664 75.8867 17.8453 76.42 18.208C76.9533 18.5707 77.22 19.072 77.22 19.712C77.22 21.0987 76.5053 22.2293 75.076 23.104C73.668 23.9573 72.1533 24.384 70.532 24.384ZM94.823 11.072L94.503 18.112C94.503 19.9893 94.8123 21.888 95.431 23.808C94.7697 24.064 94.0977 24.192 93.415 24.192C91.559 24.192 90.631 23.2107 90.631 21.248C90.631 19.7973 90.759 18.0907 91.015 16.128C91.271 14.1653 91.399 12.96 91.399 12.512C91.399 11.4027 90.8977 10.848 89.895 10.848C88.8283 10.848 87.6443 11.8507 86.343 13.856C85.0417 15.84 84.295 17.504 84.103 18.848C84.1457 19.4667 84.359 21.056 84.743 23.616C84.0817 23.872 83.3563 24 82.567 24C80.9243 24 80.103 23.2 80.103 21.6C80.103 20.832 80.2203 19.328 80.455 17.088C80.6897 14.8267 80.807 13.0133 80.807 11.648C80.807 7.104 80.551 3.34933 80.039 0.383999C80.7217 0.127998 81.4257 -1.90735e-06 82.151 -1.90735e-06C82.8763 -1.90735e-06 83.4737 0.245331 83.943 0.735998C84.4337 1.20533 84.679 1.856 84.679 2.688C84.679 3.52 84.5617 5.23733 84.327 7.84C84.1137 10.4427 84.007 12.4693 84.007 13.92C84.7537 12.3413 85.8417 10.9013 87.271 9.6C88.7217 8.27733 90.1617 7.616 91.591 7.616C93.7457 7.616 94.823 8.768 94.823 11.072ZM104.519 24.384C102.173 24.384 100.445 23.7013 99.3353 22.336C98.2259 20.9493 97.6713 19.0293 97.6713 16.576C97.6713 14.1013 98.4073 11.9573 99.8793 10.144C101.351 8.33067 103.239 7.424 105.543 7.424C110.279 7.424 112.647 10.0907 112.647 15.424C112.647 17.92 111.879 20.0427 110.343 21.792C108.807 23.52 106.866 24.384 104.519 24.384ZM102.215 10.944C101.831 12.1813 101.639 13.4187 101.639 14.656C101.639 15.8933 101.682 16.8533 101.767 17.536C101.853 18.2187 102.013 18.9013 102.247 19.584C102.738 20.9707 103.698 21.664 105.127 21.664C106.578 21.664 107.527 21.28 107.975 20.512C108.445 19.744 108.679 18.56 108.679 16.96C108.679 12.416 107.602 10.144 105.447 10.144C104.21 10.144 103.133 10.4107 102.215 10.944Z" fill="#AA0101"/>
</svg>
