<svg width="22" height="19" viewBox="0 0 22 19" fill="none" xmlns="http://www.w3.org/2000/svg">
<path fill-rule="evenodd" clip-rule="evenodd" d="M11 5.60693C8.92894 5.60693 7.25001 7.28587 7.25001 9.35693C7.25001 11.428 8.92894 13.1069 11 13.1069C13.0711 13.1069 14.75 11.428 14.75 9.35693C14.75 7.28587 13.0711 5.60693 11 5.60693ZM8.75001 9.35693C8.75001 8.11429 9.75737 7.10693 11 7.10693C12.2426 7.10693 13.25 8.11429 13.25 9.35693C13.25 10.5996 12.2426 11.6069 11 11.6069C9.75737 11.6069 8.75001 10.5996 8.75001 9.35693Z" fill="#D0D0D0"/>
<path fill-rule="evenodd" clip-rule="evenodd" d="M11 0.606934C8.85905 0.606934 6.92325 1.66593 5.35173 2.95265C3.77164 4.2464 2.47962 5.83558 1.61142 7.04495L1.53981 7.14452C1.01715 7.87077 0.586914 8.46859 0.586914 9.35693C0.586914 10.2453 1.01715 10.8431 1.53981 11.5693L1.61142 11.6689C2.47962 12.8783 3.77164 14.4675 5.35173 15.7612C6.92325 17.0479 8.85905 18.1069 11 18.1069C13.141 18.1069 15.0768 17.0479 16.6483 15.7612C18.2284 14.4675 19.5204 12.8783 20.3886 11.6689L20.4602 11.5694C20.9829 10.8431 21.4131 10.2453 21.4131 9.35693C21.4131 8.46859 20.9829 7.87077 20.4602 7.14453L20.3886 7.04495C19.5204 5.83558 18.2284 4.2464 16.6483 2.95265C15.0768 1.66593 13.141 0.606934 11 0.606934ZM2.82993 7.91972C3.6592 6.76459 4.86348 5.29107 6.302 4.11325C7.7491 2.92839 9.35423 2.10693 11 2.10693C12.6458 2.10693 14.2509 2.92839 15.698 4.11325C17.1365 5.29107 18.3408 6.76459 19.1701 7.91972C19.794 8.78887 19.9131 8.99841 19.9131 9.35693C19.9131 9.71546 19.794 9.925 19.1701 10.7941C18.3408 11.9493 17.1365 13.4228 15.698 14.6006C14.2509 15.7855 12.6458 16.6069 11 16.6069C9.35423 16.6069 7.7491 15.7855 6.302 14.6006C4.86349 13.4228 3.6592 11.9493 2.82993 10.7941C2.20597 9.925 2.08691 9.71546 2.08691 9.35693C2.08691 8.99841 2.20597 8.78887 2.82993 7.91972Z" fill="#D0D0D0"/>
</svg>
